<svg data-v-1aa59410="" version="1.0" xmlns="http://www.w3.org/2000/svg" xmlns:xlink="http://www.w3.org/1999/xlink" width="100%" height="100%" viewBox="0 0 340.000000 250.000000" preserveAspectRatio="xMidYMid meet" color-interpolation-filters="sRGB" class="el-tooltip" style="margin: auto;"><rect data-v-1aa59410="" x="0" y="0" width="100%" height="100%" fill="#fff" fill-opacity="0" class="background"></rect> <rect data-v-1aa59410="" x="0" y="0" width="100%" height="100%" fill="url(#watermark)" fill-opacity="1" class="watermarklayer"></rect> <g data-v-1aa59410="" fill="#333" class="j-b-g-c iconbgsvg" mask="url(#ef06e70d-10f2-4910-a3dc-acaf8b9a2d7f)" transform="translate(82.5,26.666664123535156)"><g transform="translate(0,0)"><rect fill="#333" fill-opacity="0" stroke-width="2" x="0" y="0" width="175" height="196.66666666666748" class="image-rect"></rect> <svg filter="url(#colors1507132726)" x="0" y="0" width="175" height="196.66666666666748" filtersec="colorsf8856404976" class="image-svg-svg primary"><svg fill="#000000" xmlns="http://www.w3.org/2000/svg" xmlns:xlink="http://www.w3.org/1999/xlink" xml:space="preserve" version="1.1" style="shape-rendering:geometricPrecision;text-rendering:geometricPrecision;image-rendering:optimizeQuality;" viewBox="146 139.5 525 590" x="0px" y="0px" fill-rule="evenodd" clip-rule="evenodd"><defs></defs><g><path class="fil0" d="M437 147l206 120c18,10 28,28 28,48l0 239c0,21 -10,38 -28,49l-206 119c-18,10 -39,10 -56,0l-207 -119c-18,-11 -28,-28 -28,-49l0 -239c0,-20 10,-38 28,-48l207 -120c17,-10 38,-10 56,0z"></path></g></svg></svg> <defs><filter id="colors1507132726"><feColorMatrix type="matrix" values="0 0 0 0 0.19921875  0 0 0 0 0.19921875  0 0 0 0 0.19921875  0 0 0 1 0" class="icon-fecolormatrix"></feColorMatrix></filter> <filter id="colorsf8856404976"><feColorMatrix type="matrix" values="0 0 0 0 0.99609375  0 0 0 0 0.99609375  0 0 0 0 0.99609375  0 0 0 1 0" class="icon-fecolormatrix"></feColorMatrix></filter> <filter id="colorsb8877366964"><feColorMatrix type="matrix" values="0 0 0 0 0  0 0 0 0 0  0 0 0 0 0  0 0 0 1 0" class="icon-fecolormatrix"></feColorMatrix></filter></defs></g> <g transform="translate(22.196075439453125,39.09062957763672)"><g class="iconsvg-imagesvg" transform="translate(47.803924560546875,0)"><!----> <svg filter="url(#colors9379286700)" x="0" y="0" width="35" height="40.408163013116" filtersec="colorsf6827348161" class="image-svg-svg primary"><svg fill="#000000" xmlns="http://www.w3.org/2000/svg" xmlns:xlink="http://www.w3.org/1999/xlink" version="1.1" x="0px" y="0px" viewBox="0.956000030040741 0.718000054359436 3.0870001316070557 3.564000129699707" enable-background="new 0 0 5 5" xml:space="preserve"><g><g><path fill="#000000" d="M2.501,4.282l-1.543-0.89L0.956,1.61l1.543-0.892l1.543,0.89L4.043,3.39L2.501,4.282z M1.408,3.131    L2.5,3.761L3.593,3.13L3.592,1.869l-1.093-0.63L1.406,1.87L1.408,3.131z"></path></g><g><rect x="2.274" y="1.108" fill="#000000" width="0.45" height="2.784"></rect></g><g><rect x="1.108" y="2.275" transform="matrix(0.8615 0.5077 -0.5077 0.8615 1.6157 -0.9231)" fill="#000000" width="2.784" height="0.45"></rect></g><g><rect x="2.275" y="1.108" transform="matrix(0.4778 0.8785 -0.8785 0.4778 3.5015 -0.8902)" fill="#000000" width="0.45" height="2.784"></rect></g></g></svg></svg> <defs><filter id="colors9379286700"><feColorMatrix type="matrix" values="0 0 0 0 0.19921875  0 0 0 0 0.19921875  0 0 0 0 0.19921875  0 0 0 1 0" class="icon-fecolormatrix"></feColorMatrix></filter> <filter id="colorsf6827348161"><feColorMatrix type="matrix" values="0 0 0 0 0.99609375  0 0 0 0 0.99609375  0 0 0 0 0.99609375  0 0 0 1 0" class="icon-fecolormatrix"></feColorMatrix></filter> <filter id="colorsb8414252445"><feColorMatrix type="matrix" values="0 0 0 0 0  0 0 0 0 0  0 0 0 0 0  0 0 0 1 0" class="icon-fecolormatrix"></feColorMatrix></filter></defs></g> <g transform="translate(0,47.40816116333008)"><g fill-rule="" class="tp-name iconsvg-namesvg" transform="translate(0,0)"><g><path d="M0.81 7.38L0.81 7.38Q4.82 7.82 7.60 5.27Q10.37 2.72 11.10-2.15L11.10-2.15Q11.43-4.30 11.51-16.01L11.51-16.01Q11.51-17.43 11.51-19.82L11.51-19.82Q11.55-26.99 11.87-28.00L11.87-28.00Q12.12-28.77 12.97-28.85L12.97-28.85Q13.09-28.85 13.37-28.89L13.37-28.89Q13.82-28.89 14.10-28.93L14.10-28.93Q15.36-29.06 15.54-29.16Q15.72-29.26 15.72-29.83L15.72-29.83Q15.68-30.23 15.28-30.35L15.28-30.35Q14.55-30.51 9.00-30.55L9.00-30.55Q2.59-30.55 2.23-30.35L2.23-30.35Q2.11-30.27 2.11-29.83L2.11-29.83Q2.11-29.30 2.29-29.20Q2.47-29.10 3.81-28.97L3.81-28.97Q6.04-28.77 6.32-28.39Q6.61-28.00 6.69-25.41L6.69-25.41Q7.21-0.53 6.81 1.66L6.81 1.66Q6.52 3.24 6.02 4.19Q5.51 5.15 4.94 5.15L4.94 5.15Q4.58 5.15 3.44 4.21L3.44 4.21Q2.03 3.00 0.59 2.88Q-0.85 2.76-1.74 3.73L-1.74 3.73Q-2.80 4.90-2.01 6.04Q-1.22 7.17 0.81 7.38ZM24.35-0.08L24.35-0.08Q24.52 0 31.28 0L31.28 0Q37.85 0 38.21-0.16L38.21-0.16Q38.38-0.28 38.38-0.73L38.38-0.73Q38.38-1.26 38.13-1.38Q37.89-1.50 36.47-1.66L36.47-1.66Q36.15-1.70 35.58-1.70L35.58-1.70Q34.20-1.74 33.98-2.82Q33.76-3.89 33.80-10.62L33.80-10.62Q33.80-13.58 33.80-15.36Q33.80-17.14 33.80-20.06L33.80-20.06Q33.76-26.75 34.04-27.84Q34.32-28.93 36.11-28.81L36.11-28.81Q36.84-28.77 37.32-28.77L37.32-28.77Q37.61-28.77 38.09-28.77L38.09-28.77Q40.04-28.77 40.42-28.45Q40.81-28.12 41.29-26.10L41.29-26.10Q41.42-25.53 41.50-25.21L41.50-25.21Q41.66-24.64 41.82-23.91Q41.98-23.18 42.08-22.81Q42.19-22.45 42.19-22.41L42.19-22.41Q42.27-22.33 43.28-22.33Q44.29-22.33 44.33-22.45L44.33-22.45Q44.37-22.53 44.21-26.46Q44.05-30.39 43.97-30.47L43.97-30.47Q43.93-30.55 31.32-30.55Q18.72-30.55 18.64-30.43L18.64-30.43Q18.56-30.35 18.44-26.48Q18.32-22.61 18.36-22.45L18.36-22.45Q18.40-22.33 19.37-22.33L19.37-22.33Q20.30-22.33 20.44-22.55Q20.59-22.77 21.11-25.21L21.11-25.21Q21.19-25.49 21.32-26.02L21.32-26.02Q21.80-28.08 22.21-28.41L22.21-28.41Q22.69-28.77 24.68-28.77L24.68-28.77Q25.12-28.77 25.37-28.77L25.37-28.77Q26.99-28.77 27.60-28.73Q28.20-28.69 28.41-28.57Q28.61-28.45 28.73-28.12Q28.85-27.80 28.91-16.76Q28.97-5.71 28.85-3.73L28.85-3.73Q28.81-2.39 28.45-2.13Q28.08-1.86 26.22-1.66L26.22-1.66Q25.81-1.62 25.37-1.58Q24.92-1.54 24.68-1.50L24.68-1.50L24.44-1.46Q24.27-1.42 24.25-0.81Q24.23-0.20 24.35-0.08ZM56.13 0.45L56.13 0.45Q61.68 1.30 65.36-2.37Q69.05-6.04 68.61-11.95L68.61-11.95Q68.32-15.36 66.66-17.83Q65-20.30 62.67-21.38Q60.34-22.45 57.69-22.41Q55.03-22.37 52.76-21.19Q50.49-20.02 48.93-17.49Q47.37-14.95 47.25-11.51L47.25-11.51Q47.05-6.73 49.48-3.46Q51.91-0.20 56.13 0.45ZM59.29-1.22L59.29-1.22Q56.81-0.61 54.97-2.11Q53.13-3.61 52.38-6.75Q51.63-9.89 52.19-13.94L52.19-13.94Q52.52-16.25 53.45-17.91Q54.38-19.57 55.56-20.30Q56.73-21.03 58.07-20.97Q59.41-20.91 60.58-20.10Q61.76-19.29 62.63-17.57Q63.50-15.84 63.78-13.49L63.78-13.49Q64.35-8.67 63.10-5.25Q61.84-1.82 59.29-1.22ZM81.41 0.45L81.41 0.45Q86.96 1.30 90.65-2.37Q94.34-6.04 93.89-11.95L93.89-11.95Q93.61-15.36 91.95-17.83Q90.29-20.30 87.96-21.38Q85.63-22.45 82.97-22.41Q80.32-22.37 78.05-21.19Q75.78-20.02 74.22-17.49Q72.66-14.95 72.54-11.51L72.54-11.51Q72.33-6.73 74.77-3.46Q77.20-0.20 81.41 0.45ZM84.57-1.22L84.57-1.22Q82.10-0.61 80.26-2.11Q78.41-3.61 77.66-6.75Q76.91-9.89 77.48-13.94L77.48-13.94Q77.81-16.25 78.74-17.91Q79.67-19.57 80.84-20.30Q82.02-21.03 83.36-20.97Q84.69-20.91 85.87-20.10Q87.04-19.29 87.92-17.57Q88.79-15.84 89.07-13.49L89.07-13.49Q89.64-8.67 88.38-5.25Q87.13-1.82 84.57-1.22ZM97.30-0.08L97.30-0.08Q97.46 0 102.89 0L102.89 0Q108.24 0 108.52-0.16L108.52-0.16Q108.64-0.24 108.64-0.65L108.64-0.65Q108.64-1.09 108.46-1.22Q108.28-1.34 107.47-1.46L107.47-1.46Q106.21-1.62 105.81-1.80Q105.40-1.99 105.24-2.47L105.24-2.47Q105.12-2.80 105.10-14.33Q105.08-25.85 105.16-29.54L105.16-29.54Q105.24-32.66 105.18-33.17Q105.12-33.68 104.63-33.68L104.63-33.68Q104.43-33.68 100.90-32.82Q97.38-31.97 97.34-31.93L97.34-31.93Q97.22-31.85 97.22-31.37Q97.22-30.88 97.34-30.80L97.34-30.80Q97.38-30.76 98.68-30.60L98.68-30.60Q100.30-30.43 100.62-29.91L100.62-29.91Q100.70-29.66 100.74-16.55Q100.78-3.44 100.66-2.72L100.66-2.72Q100.58-2.11 100.15-1.86Q99.73-1.62 98.35-1.46L98.35-1.46Q98.11-1.42 97.84-1.38Q97.58-1.34 97.42-1.30L97.42-1.30L97.30-1.30Q97.22-1.22 97.22-0.69Q97.22-0.16 97.30-0.08ZM117.40 0.49L117.40 0.49Q122.02 1.05 125.16-0.85Q128.30-2.76 128.26-6.16L128.26-6.16Q128.26-8.67 126.78-10.15Q125.30-11.63 121.29-13.09L121.29-13.09Q118.13-14.26 117.15-15.07Q116.18-15.89 116.18-17.38L116.18-17.38Q116.18-19.29 117.96-20.24Q119.75-21.19 122.10-20.59L122.10-20.59Q123.27-20.30 123.62-19.84Q123.96-19.37 124.41-17.55L124.41-17.55Q124.73-16.21 124.89-16.03Q125.06-15.84 125.83-15.84L125.83-15.84Q126.68-15.84 126.80-16.09L126.80-16.09Q126.88-16.29 126.96-18.24L126.96-18.24Q127.04-20.14 126.94-20.42Q126.84-20.71 126.03-21.11L126.03-21.11Q123.52-22.37 120.78-22.41Q118.05-22.45 116.04-21.50Q114.03-20.55 112.94-18.70Q111.85-16.86 112.33-14.59L112.33-14.59Q112.70-12.76 114.18-11.55Q115.65-10.33 118.77-9.24L118.77-9.24Q122.10-8.06 123.15-7.21Q124.21-6.36 124.21-4.74L124.21-4.74Q124.21-2.67 122.14-1.68Q120.07-0.69 117.15-1.30L117.15-1.30Q115.86-1.58 115.51-2.05Q115.17-2.51 114.72-4.58L114.72-4.58Q114.40-6.08 114.20-6.20L114.20-6.20Q114.03-6.32 113.16-6.32Q112.29-6.32 112.17-6.20Q112.05-6.08 112.03-3.81Q112.01-1.54 112.13-1.34L112.13-1.34Q112.33-0.93 114.13-0.30Q115.94 0.32 117.40 0.49Z" transform="translate(2.3392933681421, 33.675187032419)"></path></g> <!----> <!----> <!----> <!----> <!----> <!----> <!----></g> <g fill-rule="" hollow-target="custom" class="tp-slogan iconsvg-slogansvg" fill="#333" transform="translate(42.4089241027832,48.12474822998047)"><!----> <!----> <g><path d="M0.19-1.92L0.19-2.77L1.27-2.77L1.27-2.16Q1.27-0.75 2.58-0.75L2.58-0.75Q3.94-0.75 3.94-2.25L3.94-2.25L3.94-8.58L5.11-8.58L5.11-2.30Q5.06 0.09 2.63 0.14L2.63 0.14Q0.33 0.09 0.19-1.92L0.19-1.92ZM9.09-7.59L6.19-7.59L6.19-8.58L13.13-8.58L13.13-7.59L10.22-7.59L10.22 0L9.09 0L9.09-7.59ZM20.95-4.27L20.95-4.27Q20.77-7.64 17.95-7.83L17.95-7.83Q15.09-7.69 14.95-4.27L14.95-4.27Q15.09-0.94 17.95-0.80L17.95-0.80Q20.77-0.98 20.95-4.27ZM22.13-4.27L22.13-4.27Q21.84 0 17.95 0.14L17.95 0.14Q14.02 0 13.73-4.27L13.73-4.27Q13.97-8.72 17.95-8.81L17.95-8.81Q21.84-8.67 22.13-4.27ZM30.28-4.27L30.28-4.27Q30.09-7.64 27.28-7.83L27.28-7.83Q24.42-7.69 24.28-4.27L24.28-4.27Q24.42-0.94 27.28-0.80L27.28-0.80Q30.09-0.98 30.28-4.27ZM31.45-4.27L31.45-4.27Q31.17 0 27.28 0.14L27.28 0.14Q23.34 0 23.06-4.27L23.06-4.27Q23.30-8.72 27.28-8.81L27.28-8.81Q31.17-8.67 31.45-4.27ZM32.81-8.58L33.98-8.58L33.98-1.03L38.34-1.03L38.34 0L32.81 0L32.81-8.58ZM45.75-6.09L45.75-6.09L44.67-6.09Q44.58-7.73 42.52-7.83L42.52-7.83Q40.59-7.78 40.59-6.33L40.59-6.33Q40.59-5.39 41.63-5.25L41.63-5.25L44.06-4.69Q45.98-4.22 45.98-2.34L45.98-2.34Q45.94 0.05 42.61 0.14L42.61 0.14Q40.78 0.14 40.03-0.61L40.03-0.61Q39.09-1.31 39.14-2.77L39.14-2.77L40.27-2.77Q40.31-0.80 42.61-0.75L42.61-0.75Q44.86-0.80 44.91-2.20L44.91-2.20Q45.09-3.38 43.03-3.75L43.03-3.75L41.25-4.13Q39.42-4.64 39.42-6.19L39.42-6.19Q39.56-8.72 42.42-8.81L42.42-8.81Q45.66-8.81 45.75-6.09Z" transform="translate(-0.1875, 8.8125)"></path></g></g></g></g></g><defs><filter id="9c6107d0-bff0-41d2-af5d-75a116da74d9">
          <feColorMatrix type="matrix" values="0 0 0 0 0  0 0 0 0 0  0 0 0 0 0  0 0 0 1 0"></feColorMatrix>
          </filter><filter id="6f573e6e-aacd-45a2-a7e2-5ecd6390a3ce">
          <feColorMatrix type="matrix" values="0 0 0 0 0.99609375  0 0 0 0 0.99609375  0 0 0 0 0.99609375  0 0 0 1 0"></feColorMatrix>
          </filter></defs><mask id="ef06e70d-10f2-4910-a3dc-acaf8b9a2d7f"><g data-v-1aa59410="" class="j-b-g-c iconbgsvg"><g transform="translate(0,0)"><rect fill-opacity="0" stroke-width="2" x="0" y="0" width="175" height="196.66666666666748" class="image-rect"></rect> <svg x="0" y="0" width="175" height="196.66666666666748" filtersec="colorsf8856404976" class="image-svg-svg primary" filter="url(#6f573e6e-aacd-45a2-a7e2-5ecd6390a3ce)"><svg xmlns="http://www.w3.org/2000/svg" xmlns:xlink="http://www.w3.org/1999/xlink" xml:space="preserve" version="1.1" viewBox="146 139.5 525 590" x="0px" y="0px" fill-rule="evenodd" clip-rule="evenodd"><defs></defs><g><path class="fil0" d="M437 147l206 120c18,10 28,28 28,48l0 239c0,21 -10,38 -28,49l-206 119c-18,10 -39,10 -56,0l-207 -119c-18,-11 -28,-28 -28,-49l0 -239c0,-20 10,-38 28,-48l207 -120c17,-10 38,-10 56,0z"></path></g></svg></svg> <defs><filter id="colors1507132726"><feColorMatrix type="matrix" values="0 0 0 0 0.19921875  0 0 0 0 0.19921875  0 0 0 0 0.19921875  0 0 0 1 0" class="icon-fecolormatrix"></feColorMatrix></filter> <filter id="colorsf8856404976"><feColorMatrix type="matrix" values="0 0 0 0 0.99609375  0 0 0 0 0.99609375  0 0 0 0 0.99609375  0 0 0 1 0" class="icon-fecolormatrix"></feColorMatrix></filter> <filter id="colorsb8877366964"><feColorMatrix type="matrix" values="0 0 0 0 0  0 0 0 0 0  0 0 0 0 0  0 0 0 1 0" class="icon-fecolormatrix"></feColorMatrix></filter></defs></g> <g transform="translate(22.196075439453125,39.09062957763672)" filter="url(#9c6107d0-bff0-41d2-af5d-75a116da74d9)"><g class="iconsvg-imagesvg" transform="translate(47.803924560546875,0)"><!----> <svg x="0" y="0" width="35" height="40.408163013116" filtersec="colorsf6827348161" class="image-svg-svg primary"><svg xmlns="http://www.w3.org/2000/svg" xmlns:xlink="http://www.w3.org/1999/xlink" version="1.1" x="0px" y="0px" viewBox="0.956000030040741 0.718000054359436 3.0870001316070557 3.564000129699707" enable-background="new 0 0 5 5" xml:space="preserve"><g><g><path d="M2.501,4.282l-1.543-0.89L0.956,1.61l1.543-0.892l1.543,0.89L4.043,3.39L2.501,4.282z M1.408,3.131    L2.5,3.761L3.593,3.13L3.592,1.869l-1.093-0.63L1.406,1.87L1.408,3.131z"></path></g><g><rect x="2.274" y="1.108" width="0.45" height="2.784"></rect></g><g><rect x="1.108" y="2.275" transform="matrix(0.8615 0.5077 -0.5077 0.8615 1.6157 -0.9231)" width="2.784" height="0.45"></rect></g><g><rect x="2.275" y="1.108" transform="matrix(0.4778 0.8785 -0.8785 0.4778 3.5015 -0.8902)" width="0.45" height="2.784"></rect></g></g></svg></svg> <defs><filter id="colors9379286700"><feColorMatrix type="matrix" values="0 0 0 0 0.19921875  0 0 0 0 0.19921875  0 0 0 0 0.19921875  0 0 0 1 0" class="icon-fecolormatrix"></feColorMatrix></filter> <filter id="colorsf6827348161"><feColorMatrix type="matrix" values="0 0 0 0 0.99609375  0 0 0 0 0.99609375  0 0 0 0 0.99609375  0 0 0 1 0" class="icon-fecolormatrix"></feColorMatrix></filter> <filter id="colorsb8414252445"><feColorMatrix type="matrix" values="0 0 0 0 0  0 0 0 0 0  0 0 0 0 0  0 0 0 1 0" class="icon-fecolormatrix"></feColorMatrix></filter></defs></g> <g transform="translate(0,47.40816116333008)"><g fill-rule="" class="tp-name iconsvg-namesvg" transform="translate(0,0)"><g><path d="M0.81 7.38L0.81 7.38Q4.82 7.82 7.60 5.27Q10.37 2.72 11.10-2.15L11.10-2.15Q11.43-4.30 11.51-16.01L11.51-16.01Q11.51-17.43 11.51-19.82L11.51-19.82Q11.55-26.99 11.87-28.00L11.87-28.00Q12.12-28.77 12.97-28.85L12.97-28.85Q13.09-28.85 13.37-28.89L13.37-28.89Q13.82-28.89 14.10-28.93L14.10-28.93Q15.36-29.06 15.54-29.16Q15.72-29.26 15.72-29.83L15.72-29.83Q15.68-30.23 15.28-30.35L15.28-30.35Q14.55-30.51 9.00-30.55L9.00-30.55Q2.59-30.55 2.23-30.35L2.23-30.35Q2.11-30.27 2.11-29.83L2.11-29.83Q2.11-29.30 2.29-29.20Q2.47-29.10 3.81-28.97L3.81-28.97Q6.04-28.77 6.32-28.39Q6.61-28.00 6.69-25.41L6.69-25.41Q7.21-0.53 6.81 1.66L6.81 1.66Q6.52 3.24 6.02 4.19Q5.51 5.15 4.94 5.15L4.94 5.15Q4.58 5.15 3.44 4.21L3.44 4.21Q2.03 3.00 0.59 2.88Q-0.85 2.76-1.74 3.73L-1.74 3.73Q-2.80 4.90-2.01 6.04Q-1.22 7.17 0.81 7.38ZM24.35-0.08L24.35-0.08Q24.52 0 31.28 0L31.28 0Q37.85 0 38.21-0.16L38.21-0.16Q38.38-0.28 38.38-0.73L38.38-0.73Q38.38-1.26 38.13-1.38Q37.89-1.50 36.47-1.66L36.47-1.66Q36.15-1.70 35.58-1.70L35.58-1.70Q34.20-1.74 33.98-2.82Q33.76-3.89 33.80-10.62L33.80-10.62Q33.80-13.58 33.80-15.36Q33.80-17.14 33.80-20.06L33.80-20.06Q33.76-26.75 34.04-27.84Q34.32-28.93 36.11-28.81L36.11-28.81Q36.84-28.77 37.32-28.77L37.32-28.77Q37.61-28.77 38.09-28.77L38.09-28.77Q40.04-28.77 40.42-28.45Q40.81-28.12 41.29-26.10L41.29-26.10Q41.42-25.53 41.50-25.21L41.50-25.21Q41.66-24.64 41.82-23.91Q41.98-23.18 42.08-22.81Q42.19-22.45 42.19-22.41L42.19-22.41Q42.27-22.33 43.28-22.33Q44.29-22.33 44.33-22.45L44.33-22.45Q44.37-22.53 44.21-26.46Q44.05-30.39 43.97-30.47L43.97-30.47Q43.93-30.55 31.32-30.55Q18.72-30.55 18.64-30.43L18.64-30.43Q18.56-30.35 18.44-26.48Q18.32-22.61 18.36-22.45L18.36-22.45Q18.40-22.33 19.37-22.33L19.37-22.33Q20.30-22.33 20.44-22.55Q20.59-22.77 21.11-25.21L21.11-25.21Q21.19-25.49 21.32-26.02L21.32-26.02Q21.80-28.08 22.21-28.41L22.21-28.41Q22.69-28.77 24.68-28.77L24.68-28.77Q25.12-28.77 25.37-28.77L25.37-28.77Q26.99-28.77 27.60-28.73Q28.20-28.69 28.41-28.57Q28.61-28.45 28.73-28.12Q28.85-27.80 28.91-16.76Q28.97-5.71 28.85-3.73L28.85-3.73Q28.81-2.39 28.45-2.13Q28.08-1.86 26.22-1.66L26.22-1.66Q25.81-1.62 25.37-1.58Q24.92-1.54 24.68-1.50L24.68-1.50L24.44-1.46Q24.27-1.42 24.25-0.81Q24.23-0.20 24.35-0.08ZM56.13 0.45L56.13 0.45Q61.68 1.30 65.36-2.37Q69.05-6.04 68.61-11.95L68.61-11.95Q68.32-15.36 66.66-17.83Q65-20.30 62.67-21.38Q60.34-22.45 57.69-22.41Q55.03-22.37 52.76-21.19Q50.49-20.02 48.93-17.49Q47.37-14.95 47.25-11.51L47.25-11.51Q47.05-6.73 49.48-3.46Q51.91-0.20 56.13 0.45ZM59.29-1.22L59.29-1.22Q56.81-0.61 54.97-2.11Q53.13-3.61 52.38-6.75Q51.63-9.89 52.19-13.94L52.19-13.94Q52.52-16.25 53.45-17.91Q54.38-19.57 55.56-20.30Q56.73-21.03 58.07-20.97Q59.41-20.91 60.58-20.10Q61.76-19.29 62.63-17.57Q63.50-15.84 63.78-13.49L63.78-13.49Q64.35-8.67 63.10-5.25Q61.84-1.82 59.29-1.22ZM81.41 0.45L81.41 0.45Q86.96 1.30 90.65-2.37Q94.34-6.04 93.89-11.95L93.89-11.95Q93.61-15.36 91.95-17.83Q90.29-20.30 87.96-21.38Q85.63-22.45 82.97-22.41Q80.32-22.37 78.05-21.19Q75.78-20.02 74.22-17.49Q72.66-14.95 72.54-11.51L72.54-11.51Q72.33-6.73 74.77-3.46Q77.20-0.20 81.41 0.45ZM84.57-1.22L84.57-1.22Q82.10-0.61 80.26-2.11Q78.41-3.61 77.66-6.75Q76.91-9.89 77.48-13.94L77.48-13.94Q77.81-16.25 78.74-17.91Q79.67-19.57 80.84-20.30Q82.02-21.03 83.36-20.97Q84.69-20.91 85.87-20.10Q87.04-19.29 87.92-17.57Q88.79-15.84 89.07-13.49L89.07-13.49Q89.64-8.67 88.38-5.25Q87.13-1.82 84.57-1.22ZM97.30-0.08L97.30-0.08Q97.46 0 102.89 0L102.89 0Q108.24 0 108.52-0.16L108.52-0.16Q108.64-0.24 108.64-0.65L108.64-0.65Q108.64-1.09 108.46-1.22Q108.28-1.34 107.47-1.46L107.47-1.46Q106.21-1.62 105.81-1.80Q105.40-1.99 105.24-2.47L105.24-2.47Q105.12-2.80 105.10-14.33Q105.08-25.85 105.16-29.54L105.16-29.54Q105.24-32.66 105.18-33.17Q105.12-33.68 104.63-33.68L104.63-33.68Q104.43-33.68 100.90-32.82Q97.38-31.97 97.34-31.93L97.34-31.93Q97.22-31.85 97.22-31.37Q97.22-30.88 97.34-30.80L97.34-30.80Q97.38-30.76 98.68-30.60L98.68-30.60Q100.30-30.43 100.62-29.91L100.62-29.91Q100.70-29.66 100.74-16.55Q100.78-3.44 100.66-2.72L100.66-2.72Q100.58-2.11 100.15-1.86Q99.73-1.62 98.35-1.46L98.35-1.46Q98.11-1.42 97.84-1.38Q97.58-1.34 97.42-1.30L97.42-1.30L97.30-1.30Q97.22-1.22 97.22-0.69Q97.22-0.16 97.30-0.08ZM117.40 0.49L117.40 0.49Q122.02 1.05 125.16-0.85Q128.30-2.76 128.26-6.16L128.26-6.16Q128.26-8.67 126.78-10.15Q125.30-11.63 121.29-13.09L121.29-13.09Q118.13-14.26 117.15-15.07Q116.18-15.89 116.18-17.38L116.18-17.38Q116.18-19.29 117.96-20.24Q119.75-21.19 122.10-20.59L122.10-20.59Q123.27-20.30 123.62-19.84Q123.96-19.37 124.41-17.55L124.41-17.55Q124.73-16.21 124.89-16.03Q125.06-15.84 125.83-15.84L125.83-15.84Q126.68-15.84 126.80-16.09L126.80-16.09Q126.88-16.29 126.96-18.24L126.96-18.24Q127.04-20.14 126.94-20.42Q126.84-20.71 126.03-21.11L126.03-21.11Q123.52-22.37 120.78-22.41Q118.05-22.45 116.04-21.50Q114.03-20.55 112.94-18.70Q111.85-16.86 112.33-14.59L112.33-14.59Q112.70-12.76 114.18-11.55Q115.65-10.33 118.77-9.24L118.77-9.24Q122.10-8.06 123.15-7.21Q124.21-6.36 124.21-4.74L124.21-4.74Q124.21-2.67 122.14-1.68Q120.07-0.69 117.15-1.30L117.15-1.30Q115.86-1.58 115.51-2.05Q115.17-2.51 114.72-4.58L114.72-4.58Q114.40-6.08 114.20-6.20L114.20-6.20Q114.03-6.32 113.16-6.32Q112.29-6.32 112.17-6.20Q112.05-6.08 112.03-3.81Q112.01-1.54 112.13-1.34L112.13-1.34Q112.33-0.93 114.13-0.30Q115.94 0.32 117.40 0.49Z" transform="translate(2.3392933681421, 33.675187032419)"></path></g> <!----> <!----> <!----> <!----> <!----> <!----> <!----></g> <g fill-rule="" hollow-target="custom" class="tp-slogan iconsvg-slogansvg" transform="translate(42.4089241027832,48.12474822998047)"><!----> <!----> <g><path d="M0.19-1.92L0.19-2.77L1.27-2.77L1.27-2.16Q1.27-0.75 2.58-0.75L2.58-0.75Q3.94-0.75 3.94-2.25L3.94-2.25L3.94-8.58L5.11-8.58L5.11-2.30Q5.06 0.09 2.63 0.14L2.63 0.14Q0.33 0.09 0.19-1.92L0.19-1.92ZM9.09-7.59L6.19-7.59L6.19-8.58L13.13-8.58L13.13-7.59L10.22-7.59L10.22 0L9.09 0L9.09-7.59ZM20.95-4.27L20.95-4.27Q20.77-7.64 17.95-7.83L17.95-7.83Q15.09-7.69 14.95-4.27L14.95-4.27Q15.09-0.94 17.95-0.80L17.95-0.80Q20.77-0.98 20.95-4.27ZM22.13-4.27L22.13-4.27Q21.84 0 17.95 0.14L17.95 0.14Q14.02 0 13.73-4.27L13.73-4.27Q13.97-8.72 17.95-8.81L17.95-8.81Q21.84-8.67 22.13-4.27ZM30.28-4.27L30.28-4.27Q30.09-7.64 27.28-7.83L27.28-7.83Q24.42-7.69 24.28-4.27L24.28-4.27Q24.42-0.94 27.28-0.80L27.28-0.80Q30.09-0.98 30.28-4.27ZM31.45-4.27L31.45-4.27Q31.17 0 27.28 0.14L27.28 0.14Q23.34 0 23.06-4.27L23.06-4.27Q23.30-8.72 27.28-8.81L27.28-8.81Q31.17-8.67 31.45-4.27ZM32.81-8.58L33.98-8.58L33.98-1.03L38.34-1.03L38.34 0L32.81 0L32.81-8.58ZM45.75-6.09L45.75-6.09L44.67-6.09Q44.58-7.73 42.52-7.83L42.52-7.83Q40.59-7.78 40.59-6.33L40.59-6.33Q40.59-5.39 41.63-5.25L41.63-5.25L44.06-4.69Q45.98-4.22 45.98-2.34L45.98-2.34Q45.94 0.05 42.61 0.14L42.61 0.14Q40.78 0.14 40.03-0.61L40.03-0.61Q39.09-1.31 39.14-2.77L39.14-2.77L40.27-2.77Q40.31-0.80 42.61-0.75L42.61-0.75Q44.86-0.80 44.91-2.20L44.91-2.20Q45.09-3.38 43.03-3.75L43.03-3.75L41.25-4.13Q39.42-4.64 39.42-6.19L39.42-6.19Q39.56-8.72 42.42-8.81L42.42-8.81Q45.66-8.81 45.75-6.09Z" transform="translate(-0.1875, 8.8125)"></path></g></g></g></g></g></mask></svg>